<svg width="756" height="378" xmlns="http://www.w3.org/2000/svg" xmlns:xlink="http://www.w3.org/1999/xlink" overflow="hidden"><g><rect x="0" y="0" width="756" height="377.917" fill="#FFFFFF"/><path d="M53.5 47.4896C66.7028 45.8813 81.8142 50.4964 98.0399 47.4896 114.266 44.4827 136.078 52.5198 155.68 47.4896 175.282 42.4593 193.749 51.3961 205.46 47.4896 217.171 43.583 238.316 50.2546 250 47.4896 261.684 44.7245 294.201 48.4155 315.5 47.4896 317.06 73.6922 308.783 84.5616 315.5 107.476 322.217 130.391 313.489 135.623 315.5 158.465 317.511 181.307 315.053 206.191 315.5 221.451 315.947 236.712 309.565 258.618 315.5 281.438 321.435 304.258 311.262 319.399 315.5 347.423 295.61 354.178 270.417 342.887 257.86 347.423 245.303 351.96 216.39 345.019 200.22 347.423 184.05 349.828 163.595 346.144 153.06 347.423 142.524 348.702 119.816 345.96 103.28 347.423 86.7441 348.887 66.0349 342.33 53.5 347.423 52.9961 319.212 58.799 310.363 53.5 287.437 48.201 264.51 58.5831 259.589 53.5 233.449 48.4168 207.308 54.4686 199.989 53.5 179.46 52.5313 158.932 53.9696 133.654 53.5 119.474 53.0303 105.294 56.0682 76.0598 53.5 47.4896Z" fill="#F2F2F2" fill-rule="evenodd"/><path d="M53.5 47.4896C71.869 42.5601 79.4233 47.5754 100.66 47.4896 121.897 47.4037 138.288 49.404 153.06 47.4896 167.832 45.5751 191.967 48.676 210.7 47.4896 229.433 46.3031 240.654 52.2884 260.48 47.4896 280.306 42.6907 293.717 48.5858 315.5 47.4896 317.252 64.7922 311.883 75.9854 315.5 101.478 319.117 126.97 314.776 145.538 315.5 164.464 316.224 183.39 311.037 207.557 315.5 218.452 319.963 229.347 312.029 252.681 315.5 275.439 318.971 298.197 307.978 318.843 315.5 347.423 292.982 349.056 277.577 341.57 263.1 347.423 248.623 353.276 222.192 341.877 210.7 347.423 199.208 352.97 177.251 343.331 166.16 347.423 155.069 351.516 137.152 342.278 121.62 347.423 106.088 352.568 72.5593 345.826 53.5 347.423 51.087 335.809 57.1022 307.59 53.5 293.435 49.8978 279.28 60.5601 245.455 53.5 227.45 46.4398 209.445 53.8706 186.831 53.5 161.464 53.1294 136.098 62.9367 98.5865 53.5 47.4896Z" stroke="#000000" stroke-width="1.33363" stroke-miterlimit="8" stroke-dasharray="1.33363 1.33363" fill="none" fill-rule="evenodd"/><text fill="#70AD47" font-family="Consolas,Consolas_MSFontService,sans-serif" font-weight="400" font-size="21.3333" transform="matrix(1 0 0 0.99978 62.5973 136)">!Intrinsic data</text><text fill="#70AD47" font-family="Consolas,Consolas_MSFontService,sans-serif" font-weight="400" font-size="21.3333" transform="matrix(1 0 0 0.99978 249.305 136)">typ</text><text fill="#70AD47" font-family="Consolas,Consolas_MSFontService,sans-serif" font-weight="400" font-size="21.3333" transform="matrix(1 0 0 0.99978 284.313 136)">e</text><text font-family="Consolas,Consolas_MSFontService,sans-serif" font-weight="700" font-size="21.3333" transform="matrix(1 0 0 0.99978 62.5973 162)">Program</text><text font-family="Consolas,Consolas_MSFontService,sans-serif" font-weight="700" font-size="21.3333" transform="matrix(1 0 0 0.99978 155.951 162)">data_type</text><text font-family="Consolas,Consolas_MSFontService,sans-serif" font-weight="400" font-size="21.3333" transform="matrix(1 0 0 0.99978 74.2666 187)">implicit none</text><text font-family="Consolas,Consolas_MSFontService,sans-serif" font-weight="400" font-size="21.3333" transform="matrix(1 0 0 0.99978 110.608 213)">integer :: nx, ny</text><text font-family="Consolas,Consolas_MSFontService,sans-serif" font-weight="400" font-size="21.3333" transform="matrix(1 0 0 0.99978 110.608 239)">real :: dx, dy</text><text font-family="Consolas,Consolas_MSFontService,sans-serif" font-weight="700" font-size="21.3333" transform="matrix(1 0 0 0.99978 62.5973 264)">end</text><text font-family="Consolas,Consolas_MSFontService,sans-serif" font-weight="700" font-size="21.3333" transform="matrix(1 0 0 0.99978 109.274 264)">program</text><path d="M403.5 47.4896C414.114 44.1149 437.98 51.2972 454.42 47.4896 470.859 43.682 498.896 49.0691 510.7 47.4896 522.504 45.91 537.685 49.7705 561.62 47.4896 585.555 45.2086 589.982 48.7482 607.18 47.4896 624.378 46.2309 642.229 55.1084 671.5 47.4896 673.834 77.8603 664.152 91.2839 671.5 110.476 678.848 129.667 667.086 139.232 671.5 164.464 675.914 189.696 666.197 214.845 671.5 230.449 676.803 246.054 666.372 270.499 671.5 284.437 676.628 298.375 664.057 329.295 671.5 347.423 657.606 347.638 636.121 341.379 620.58 347.423 605.039 353.467 593.972 344.027 569.66 347.423 545.347 350.82 541.623 347.303 524.1 347.423 506.576 347.544 492.993 347.407 470.5 347.423 448.007 347.44 436.276 346.962 403.5 347.423 397.665 317.571 409.314 301.809 403.5 284.437 397.686 267.065 407.783 239.109 403.5 218.452 399.217 197.795 407.598 191.447 403.5 167.463 399.402 143.479 404.441 131.017 403.5 110.476 402.559 89.9343 409.789 71.5596 403.5 47.4896Z" fill="#F2F2F2" fill-rule="evenodd"/><path d="M403.5 47.4896C428.673 42.1519 434.009 51.9106 457.1 47.4896 480.191 43.0685 488.454 50.9583 508.02 47.4896 527.586 44.0208 539.446 50.5122 558.94 47.4896 578.434 44.4669 595.856 48.2366 609.86 47.4896 623.863 46.7425 650.752 48.042 671.5 47.4896 676.082 76.2456 670.229 87.6697 671.5 113.475 672.771 139.28 665.847 165.331 671.5 179.46 677.153 193.59 670.136 217.589 671.5 233.449 672.864 249.308 668.921 271.274 671.5 287.437 674.079 303.599 664.301 323.78 671.5 347.423 658.357 348.215 626.921 340.91 612.54 347.423 598.159 353.937 575.118 340.802 553.58 347.423 532.042 354.045 517.946 346.645 497.3 347.423 476.654 348.202 436.108 338.891 403.5 347.423 402.32 323.803 405.066 303.416 403.5 290.436 401.934 277.456 405.436 253.329 403.5 230.449 401.564 207.569 409.473 195.715 403.5 179.46 397.527 163.206 409.372 144.238 403.5 125.472 397.628 106.706 406.713 70.5671 403.5 47.4896Z" stroke="#000000" stroke-width="1.33363" stroke-miterlimit="8" stroke-dasharray="1.33363 1.33363" fill="none" fill-rule="evenodd"/><text fill="#70AD47" font-family="Calibri,Calibri_MSFontService,sans-serif" font-weight="400" font-size="21.3333" transform="matrix(1 0 0 0.99978 417.429 71)">! user</text><text fill="#70AD47" font-family="Calibri,Calibri_MSFontService,sans-serif" font-weight="400" font-size="21.3333" transform="matrix(1 0 0 0.99978 466.94 71)">-</text><text fill="#70AD47" font-family="Calibri,Calibri_MSFontService,sans-serif" font-weight="400" font-size="21.3333" transform="matrix(1 0 0 0.99978 473.442 71)">defined data type</text><text font-family="Consolas,Consolas_MSFontService,sans-serif" font-weight="700" font-size="21.3333" transform="matrix(1 0 0 0.99978 412.595 97)">Program</text><text font-family="Consolas,Consolas_MSFontService,sans-serif" font-weight="700" font-size="21.3333" transform="matrix(1 0 0 0.99978 505.949 97)">data_type</text><text font-family="Consolas,Consolas_MSFontService,sans-serif" font-weight="400" font-size="21.3333" transform="matrix(1 0 0 0.99978 435.933 122)">implicit none</text><text fill="#0070C0" font-family="Consolas,Consolas_MSFontService,sans-serif" font-weight="400" font-size="21.3333" transform="matrix(1 0 0 0.99978 447.603 148)">Type gridType</text><text font-family="Consolas,Consolas_MSFontService,sans-serif" font-weight="400" font-size="21.3333" transform="matrix(1 0 0 0.99978 472.275 174)">integer:: nx, ny</text><text font-family="Consolas,Consolas_MSFontService,sans-serif" font-weight="400" font-size="21.3333" transform="matrix(1 0 0 0.99978 472.275 199)">real :: dx, dy</text><text fill="#0070C0" font-family="Consolas,Consolas_MSFontService,sans-serif" font-weight="400" font-size="21.3333" transform="matrix(1 0 0 0.99978 447.603 225)">end Type gridType</text><text fill="#70AD47" font-family="Consolas,Consolas_MSFontService,sans-serif" font-weight="400" font-size="21.3333" transform="matrix(1 0 0 0.99978 424.264 276)">!</text><text fill="#70AD47" font-family="Consolas,Consolas_MSFontService,sans-serif" font-weight="400" font-size="21.3333" transform="matrix(1 0 0 0.99978 435.933 276)">declare object</text><text fill="#0070C0" font-family="Consolas,Consolas_MSFontService,sans-serif" font-weight="400" font-size="21.3333" transform="matrix(1 0 0 0.99978 424.264 302)">type(gridType )=grid</text><text font-family="Consolas,Consolas_MSFontService,sans-serif" font-weight="700" font-size="21.3333" transform="matrix(1 0 0 0.99978 424.264 327)">end program</text><path d="M442 138.969 442 224.497" stroke="#4472C4" stroke-width="2.00044" stroke-miterlimit="8" stroke-dasharray="16.0035 6.00132" fill="none" fill-rule="evenodd"/></g></svg>