<svg width="1058" height="644" xmlns="http://www.w3.org/2000/svg" xmlns:xlink="http://www.w3.org/1999/xlink" overflow="hidden"><g><rect x="0" y="0" width="1058" height="643.87" fill="#FFFFFF"/><rect x="528.5" y="84.4829" width="489" height="541.89" stroke="#000000" stroke-width="1.33291" stroke-miterlimit="8" fill="#F2F2F2"/><rect x="15.5" y="84.4829" width="489" height="541.89" stroke="#000000" stroke-width="1.33291" stroke-miterlimit="8" fill="#F2F2F2"/><text fill="#FF0000" font-family="Calibri,Calibri_MSFontService,sans-serif" font-weight="700" font-size="31.9968" transform="matrix(1 0 0 0.999798 103.31 52)">Procedural Programming</text><text fill="#FF0000" font-family="Calibri,Calibri_MSFontService,sans-serif" font-weight="700" font-size="31.9968" transform="matrix(1 0 0 0.999798 569.512 53)">Object Oriented Programming</text><rect x="142.5" y="115.477" width="234" height="70.9856" stroke="#D0CECE" stroke-width="1.33291" stroke-miterlimit="8" fill="#E2F0D9"/><text font-family="Calibri,Calibri_MSFontService,sans-serif" font-weight="400" font-size="23.9876" transform="matrix(1 0 0 0.999798 169.218 158)">Intrinsic Data</text><text font-family="Calibri,Calibri_MSFontService,sans-serif" font-weight="400" font-size="23.9876" transform="matrix(1 0 0 0.999798 303.442 158)">Type</text><rect x="158.5" y="257.448" width="203" height="70.9856" stroke="#D0CECE" stroke-width="1.33291" stroke-miterlimit="8" fill="#E2F0D9"/><text font-family="Calibri,Calibri_MSFontService,sans-serif" font-weight="400" font-size="23.9876" transform="matrix(1 0 0 0.999798 219.709 300)">Variable</text><rect x="158.5" y="399.419" width="203" height="70.9856" stroke="#D0CECE" stroke-width="1.33291" stroke-miterlimit="8" fill="#E2F0D9"/><text font-family="Calibri,Calibri_MSFontService,sans-serif" font-weight="400" font-size="23.9876" transform="matrix(1 0 0 0.999798 255.698 442)">-</text><rect x="158" y="536.891" width="203" height="71.9854" fill="#E2F0D9"/><text font-family="Calibri,Calibri_MSFontService,sans-serif" font-weight="400" font-size="23.9876" transform="matrix(1 0 0 0.999798 204.481 580)">Procedures</text><path d="M259.833 186.462 259.833 250.248 259.167 250.248 259.167 186.462ZM263.499 248.916 259.5 256.912 255.501 248.916Z"/><path d="M259.833 328.433 259.833 392.22 259.167 392.22 259.167 328.433ZM263.499 390.887 259.5 398.883 255.501 390.887Z"/><path d="M259.833 468.405 259.833 532.191 259.167 532.191 259.167 468.405ZM263.499 530.859 259.5 538.854 255.501 530.859Z"/><rect x="656.5" y="115.477" width="234" height="70.9856" stroke="#D0CECE" stroke-width="1.33291" stroke-miterlimit="8" fill="#E2F0D9"/><text font-family="Calibri,Calibri_MSFontService,sans-serif" font-weight="400" font-size="23.9876" transform="matrix(1 0 0 0.999798 683.808 144)">User Defined Data</text><text font-family="Calibri,Calibri_MSFontService,sans-serif" font-weight="400" font-size="23.9876" transform="matrix(1 0 0 0.999798 749.801 173)">Type</text><rect x="671.5" y="257.448" width="203" height="70.9856" stroke="#D0CECE" stroke-width="1.33291" stroke-miterlimit="8" fill="#E2F0D9"/><text font-family="Calibri,Calibri_MSFontService,sans-serif" font-weight="400" font-size="23.9876" transform="matrix(1 0 0 0.999798 740.678 300)">Object</text><rect x="671" y="398.919" width="203" height="70.9856" fill="#E2F0D9"/><text font-family="Calibri,Calibri_MSFontService,sans-serif" font-weight="400" font-size="23.9876" transform="matrix(1 0 0 0.999798 715.229 428)">Type Bound</text><text font-family="Calibri,Calibri_MSFontService,sans-serif" font-weight="400" font-size="23.9876" transform="matrix(1 0 0 0.999798 717.948 457)">Procedures</text><rect x="671" y="536.891" width="203" height="71.9854" fill="#E2F0D9"/><text font-family="Calibri,Calibri_MSFontService,sans-serif" font-weight="400" font-size="23.9876" transform="matrix(1 0 0 0.999798 728.995 580)">Methods</text><path d="M773.833 186.462 773.833 250.248 773.167 250.248 773.167 186.462ZM777.499 248.916 773.5 256.912 769.501 248.916Z"/><path d="M773.833 328.433 773.833 392.22 773.167 392.22 773.167 328.433ZM777.499 390.887 773.5 398.883 769.501 390.887Z"/><path d="M773.833 468.405 773.833 532.191 773.167 532.191 773.167 468.405ZM777.499 530.859 773.5 538.854 769.501 530.859Z"/></g></svg>