<svg width="1512" height="720" xmlns="http://www.w3.org/2000/svg" xmlns:xlink="http://www.w3.org/1999/xlink" overflow="hidden"><g><rect x="0" y="0" width="1512" height="719.921" fill="#FFFFFF"/><rect x="974" y="87.9903" width="495" height="558.938" fill="#F2F2F2"/><text fill="#FF0000" font-family="Calibri,Calibri_MSFontService,sans-serif" font-weight="700" font-size="26.6667" transform="matrix(1 0 0 0.99989 144.505 66)">Module</text><rect x="7.00004" y="87.9903" width="413" height="495.945" fill="#F2F2F2"/><text fill="#FF0000" font-family="Calibri,Calibri_MSFontService,sans-serif" font-weight="700" font-size="26.6667" transform="matrix(1 0 0 0.99989 1151.84 66)">Submodule</text><text fill="#385723" font-family="Calibri,Calibri_MSFontService,sans-serif" font-weight="700" font-size="18.6667" transform="matrix(1 0 0 0.99989 41.0854 121)">! phase_field_mod.f90</text><text font-family="Calibri,Calibri_MSFontService,sans-serif" font-weight="400" font-size="18.6667" transform="matrix(1 0 0 0.99989 41.0854 144)">module phase_field_mod</text><text font-family="Calibri,Calibri_MSFontService,sans-serif" font-weight="400" font-size="18.6667" transform="matrix(1 0 0 0.99989 57.7539 166)">implicit none</text><text font-family="Calibri,Calibri_MSFontService,sans-serif" font-weight="700" font-size="18.6667" transform="matrix(1 0 0 0.99989 57.7539 211)">type, public :: PhaseFieldGrid</text><text font-family="Calibri,Calibri_MSFontService,sans-serif" font-weight="400" font-size="18.6667" transform="matrix(1 0 0 0.99989 74.4224 233)">! ... components ...</text><text font-family="Calibri,Calibri_MSFontService,sans-serif" font-weight="400" font-size="18.6667" transform="matrix(1 0 0 0.99989 57.7539 256)">contains</text><text font-family="Calibri,Calibri_MSFontService,sans-serif" font-weight="400" font-size="18.6667" transform="matrix(1 0 0 0.99989 74.4224 278)">procedure ::</text><text fill="#C00000" font-family="Calibri,Calibri_MSFontService,sans-serif" font-weight="400" font-size="18.6667" transform="matrix(1 0 0 0.99989 171.053 278)">create_grid</text><text font-family="Calibri,Calibri_MSFontService,sans-serif" font-weight="400" font-size="18.6667" transform="matrix(1 0 0 0.99989 74.4224 301)">! ... more procedures ...</text><text font-family="Calibri,Calibri_MSFontService,sans-serif" font-weight="700" font-size="18.6667" transform="matrix(1 0 0 0.99989 57.7539 323)">end type PhaseFieldGrid</text><text font-family="Calibri,Calibri_MSFontService,sans-serif" font-weight="400" font-size="18.6667" transform="matrix(1 0 0 0.99989 41.0854 368)">contains</text><text fill="#203864" font-family="Calibri,Calibri_MSFontService,sans-serif" font-weight="400" font-size="18.6667" transform="matrix(1 0 0 0.99989 53.5867 435)">subroutine</text><text fill="#C00000" font-family="Calibri,Calibri_MSFontService,sans-serif" font-weight="400" font-size="18.6667" transform="matrix(1 0 0 0.99989 140.463 435)">create_grid</text><text font-family="Calibri,Calibri_MSFontService,sans-serif" font-weight="400" font-size="18.6667" transform="matrix(1 0 0 0.99989 231.186 435)">(this, Nx, Ny, dx, dy)</text><text font-family="Calibri,Calibri_MSFontService,sans-serif" font-weight="400" font-size="18.6667" transform="matrix(1 0 0 0.99989 74.4224 457)">! Implementation code</text><text fill="#203864" font-family="Calibri,Calibri_MSFontService,sans-serif" font-weight="400" font-size="18.6667" transform="matrix(1 0 0 0.99989 57.7539 480)">end subroutine</text><text font-family="Calibri,Calibri_MSFontService,sans-serif" font-weight="400" font-size="18.6667" transform="matrix(1 0 0 0.99989 74.4224 502)">! ... more implementations ...</text><text fill="#385723" font-family="Calibri,Calibri_MSFontService,sans-serif" font-weight="700" font-size="18.6667" transform="matrix(1 0 0 0.99989 41.0854 569)">end</text><text fill="#385723" font-family="Calibri,Calibri_MSFontService,sans-serif" font-weight="700" font-size="18.6667" transform="matrix(1 0 0 0.99989 74.5891 569)">module phase_field_mod</text><rect x="40.5" y="181.48" width="352" height="159.982" stroke="#2F528F" stroke-width="1.33348" stroke-miterlimit="8" fill="none"/><rect x="40.5" y="393.457" width="355" height="125.986" stroke="#2F528F" stroke-width="1.33348" stroke-miterlimit="8" fill="none"/><rect x="470" y="87.9903" width="495" height="558.938" fill="#F2F2F2"/><text fill="#385723" font-family="Calibri,Calibri_MSFontService,sans-serif" font-weight="700" font-size="18.6667" transform="matrix(1 0 0 0.99989 479.667 121)">! phase_field_mod.f90</text><text font-family="Calibri,Calibri_MSFontService,sans-serif" font-weight="400" font-size="18.6667" transform="matrix(1 0 0 0.99989 479.667 144)">module phase_field_mod</text><text font-family="Calibri,Calibri_MSFontService,sans-serif" font-weight="400" font-size="18.6667" transform="matrix(1 0 0 0.99989 496.335 166)">implicit none</text><text font-family="Calibri,Calibri_MSFontService,sans-serif" font-weight="700" font-size="18.6667" transform="matrix(1 0 0 0.99989 527.672 211)">type</text><text font-family="Calibri,Calibri_MSFontService,sans-serif" font-weight="700" font-size="18.6667" transform="matrix(1 0 0 0.99989 562.343 211)">, public :: PhaseFieldGrid</text><text font-family="Calibri,Calibri_MSFontService,sans-serif" font-weight="400" font-size="18.6667" transform="matrix(1 0 0 0.99989 552.675 233)">!</text><text font-family="Calibri,Calibri_MSFontService,sans-serif" font-weight="400" font-size="18.6667" transform="matrix(1 0 0 0.99989 562.843 233)">... components ...</text><text font-family="Calibri,Calibri_MSFontService,sans-serif" font-weight="400" font-size="18.6667" transform="matrix(1 0 0 0.99989 527.672 256)">contains</text><text font-family="Calibri,Calibri_MSFontService,sans-serif" font-weight="400" font-size="18.6667" transform="matrix(1 0 0 0.99989 575.677 278)">procedure</text><text font-family="Calibri,Calibri_MSFontService,sans-serif" font-weight="400" font-size="18.6667" transform="matrix(1 0 0 0.99989 658.14 278)">::</text><text fill="#C00000" font-family="Calibri,Calibri_MSFontService,sans-serif" font-weight="400" font-size="18.6667" transform="matrix(1 0 0 0.99989 672.308 278)">create_grid</text><text font-family="Calibri,Calibri_MSFontService,sans-serif" font-weight="400" font-size="18.6667" transform="matrix(1 0 0 0.99989 575.677 301)">!</text><text font-family="Calibri,Calibri_MSFontService,sans-serif" font-weight="400" font-size="18.6667" transform="matrix(1 0 0 0.99989 585.845 301)">... more procedures ...</text><text font-family="Calibri,Calibri_MSFontService,sans-serif" font-weight="700" font-size="18.6667" transform="matrix(1 0 0 0.99989 527.672 323)">end</text><text font-family="Calibri,Calibri_MSFontService,sans-serif" font-weight="700" font-size="18.6667" transform="matrix(1 0 0 0.99989 561.176 323)">type PhaseFieldGrid</text><text font-family="Calibri,Calibri_MSFontService,sans-serif" font-weight="400" font-size="18.6667" transform="matrix(1 0 0 0.99989 483.834 368)">contains</text><text fill="#385723" font-family="Calibri,Calibri_MSFontService,sans-serif" font-weight="700" font-size="18.6667" transform="matrix(1 0 0 0.99989 479.667 621)">end</text><text fill="#385723" font-family="Calibri,Calibri_MSFontService,sans-serif" font-weight="700" font-size="18.6667" transform="matrix(1 0 0 0.99989 513.17 621)">module phase_field_mod</text><rect x="493.5" y="179.48" width="457" height="161.982" stroke="#2F528F" stroke-width="1.33348" stroke-miterlimit="8" fill="none"/><rect x="493.5" y="384.458" width="456" height="188.979" stroke="#2F528F" stroke-width="1.33348" stroke-miterlimit="8" fill="none"/><path d="M0-17.998 67.4192-17.998 67.4192 4.99945-4.06856e-07 4.99945Z" fill="#FFFF00" fill-rule="evenodd" transform="matrix(1.00011 0 0 1 513.004 417.684)"/><path d="M0-17.998 33.163-17.998 33.163 4.99945 1.27143e-06 4.99945Z" fill="#FFFF00" fill-rule="evenodd" transform="matrix(1.00011 0 0 1 513.004 553.669)"/><path d="M0-17.998 67.4192-17.998 67.4192 4.99945-4.06856e-07 4.99945Z" fill="#FFFF00" fill-rule="evenodd" transform="matrix(1.00011 0 0 1 546.174 553.669)"/><text font-family="Calibri,Calibri_MSFontService,sans-serif" font-weight="400" font-size="18.6667" transform="matrix(1 0 0 0.99989 513.004 418)">interface</text><text fill="#203864" font-family="Calibri,Calibri_MSFontService,sans-serif" font-weight="400" font-size="18.6667" transform="matrix(1 0 0 0.99989 527.672 441)">module</text><text fill="#203864" font-family="Calibri,Calibri_MSFontService,sans-serif" font-weight="400" font-size="18.6667" transform="matrix(1 0 0 0.99989 589.845 441)">subroutine</text><text fill="#C00000" font-family="Calibri,Calibri_MSFontService,sans-serif" font-weight="400" font-size="18.6667" transform="matrix(1 0 0 0.99989 676.722 441)">create_grid</text><text font-family="Calibri,Calibri_MSFontService,sans-serif" font-weight="400" font-size="18.6667" transform="matrix(1 0 0 0.99989 763.278 441)">(this, Nx, Ny, dx, dy)</text><text font-family="Calibri,Calibri_MSFontService,sans-serif" font-weight="400" font-size="18.6667" transform="matrix(1 0 0 0.99989 575.677 463)">class</text><text font-family="Calibri,Calibri_MSFontService,sans-serif" font-weight="400" font-size="18.6667" transform="matrix(1 0 0 0.99989 615.682 463)">(</text><text font-family="Calibri,Calibri_MSFontService,sans-serif" font-weight="400" font-size="18.6667" transform="matrix(1 0 0 0.99989 621.349 463)">PhaseFieldGrid), intent(inout) :: this</text><text font-family="Calibri,Calibri_MSFontService,sans-serif" font-weight="400" font-size="18.6667" transform="matrix(1 0 0 0.99989 575.677 486)">integer</text><text font-family="Calibri,Calibri_MSFontService,sans-serif" font-weight="400" font-size="18.6667" transform="matrix(1 0 0 0.99989 628.05 486)">, intent(in)</text><text font-family="Calibri,Calibri_MSFontService,sans-serif" font-weight="400" font-size="18.6667" transform="matrix(1 0 0 0.99989 716.179 486)">::</text><text font-family="Calibri,Calibri_MSFontService,sans-serif" font-weight="400" font-size="18.6667" transform="matrix(1 0 0 0.99989 734.515 486)">Nx</text><text font-family="Calibri,Calibri_MSFontService,sans-serif" font-weight="400" font-size="18.6667" transform="matrix(1 0 0 0.99989 754.684 486)">, Ny, dx, dy</text><text fill="#203864" font-family="Calibri,Calibri_MSFontService,sans-serif" font-weight="400" font-size="18.6667" transform="matrix(1 0 0 0.99989 527.672 509)">end</text><text fill="#203864" font-family="Calibri,Calibri_MSFontService,sans-serif" font-weight="400" font-size="18.6667" transform="matrix(1 0 0 0.99989 560.842 509)">subroutine</text><text font-family="Calibri,Calibri_MSFontService,sans-serif" font-weight="400" font-size="18.6667" transform="matrix(1 0 0 0.99989 513.004 531)">! ... more interface declarations ...</text><text font-family="Calibri,Calibri_MSFontService,sans-serif" font-weight="400" font-size="18.6667" transform="matrix(1 0 0 0.99989 513.004 554)">end</text><text font-family="Calibri,Calibri_MSFontService,sans-serif" font-weight="400" font-size="18.6667" transform="matrix(1 0 0 0.99989 546.174 554)">interface</text><text fill="#385723" font-family="Calibri,Calibri_MSFontService,sans-serif" font-weight="700" font-size="18.6667" transform="matrix(1 0 0 0.99989 1026.88 281)">! create_grid_sub.</text><text fill="#385723" font-family="Calibri,Calibri_MSFontService,sans-serif" font-weight="700" font-size="18.6667" transform="matrix(1 0 0 0.99989 1166.26 281)">f90</text><text fill="#0070C0" font-family="Calibri,Calibri_MSFontService,sans-serif" font-weight="400" font-size="18.6667" transform="matrix(1 0 0 0.99989 1026.88 326)">submodule</text><text font-family="Calibri,Calibri_MSFontService,sans-serif" font-weight="400" font-size="18.6667" transform="matrix(1 0 0 0.99989 1116.06 326)">(phase_field_mod)</text><text fill="#C00000" font-family="Calibri,Calibri_MSFontService,sans-serif" font-weight="400" font-size="18.6667" transform="matrix(1 0 0 0.99989 1263.57 326)">create_grid_sub</text><text font-family="Calibri,Calibri_MSFontService,sans-serif" font-weight="400" font-size="18.6667" transform="matrix(1 0 0 0.99989 1043.55 349)">implicit</text><text font-family="Calibri,Calibri_MSFontService,sans-serif" font-weight="400" font-size="18.6667" transform="matrix(1 0 0 0.99989 1103.89 349)">none</text><text font-family="Calibri,Calibri_MSFontService,sans-serif" font-weight="400" font-size="18.6667" transform="matrix(1 0 0 0.99989 1026.88 393)">contains</text><text fill="#203864" font-family="Calibri,Calibri_MSFontService,sans-serif" font-weight="400" font-size="18.6667" transform="matrix(1 0 0 0.99989 1043.55 438)">module procedure</text><text fill="#C00000" font-family="Calibri,Calibri_MSFontService,sans-serif" font-weight="400" font-size="18.6667" transform="matrix(1 0 0 0.99989 1188.19 438)">create_grid</text><text font-family="Calibri,Calibri_MSFontService,sans-serif" font-weight="400" font-size="18.6667" transform="matrix(1 0 0 0.99989 1060.22 461)">! Implementation code</text><text fill="#203864" font-family="Calibri,Calibri_MSFontService,sans-serif" font-weight="400" font-size="18.6667" transform="matrix(1 0 0 0.99989 1043.55 483)">end</text><text fill="#203864" font-family="Calibri,Calibri_MSFontService,sans-serif" font-weight="400" font-size="18.6667" transform="matrix(1 0 0 0.99989 1076.72 483)">procedure</text><text fill="#0070C0" font-family="Calibri,Calibri_MSFontService,sans-serif" font-weight="400" font-size="18.6667" transform="matrix(1 0 0 0.99989 1026.88 528)">end submodule</text><rect x="994.5" y="238.474" width="457" height="334.963" stroke="#2F528F" stroke-width="1.33348" stroke-miterlimit="8" fill="none"/><path d="M446.5 37.4959 446.5 699.304" stroke="#000000" stroke-width="3.00033" stroke-miterlimit="8" stroke-dasharray="24.0026 9.00099" fill="none" fill-rule="evenodd"/><text fill="#FF0000" font-family="Calibri,Calibri_MSFontService,sans-serif" font-weight="700" font-size="26.6667" transform="matrix(1 0 0 0.99989 673.586 66)">Module</text></g></svg>