<svg width="567" height="378" xmlns="http://www.w3.org/2000/svg" xmlns:xlink="http://www.w3.org/1999/xlink" overflow="hidden"><g><rect x="0" y="0" width="567" height="378" fill="#FFFFFF"/><path d="M6.50005 9.50005C20.0423 8.19732 31.8777 13.285 50.3601 9.50005 68.8424 5.71506 80.2013 14.1096 107.12 9.50005 134.039 4.89055 134.965 9.75968 156.14 9.50005 177.316 9.24043 191.065 14.0685 200 9.50005 208.935 4.93158 235.605 13.0446 264.5 9.50005 266.88 36.4606 261.917 49.3003 264.5 65.8334 267.083 82.3666 262.985 90.845 264.5 112.027 266.015 133.208 263.952 154.544 264.5 171.74 265.048 188.936 261.861 203.306 264.5 228.073 267.139 252.84 263.012 259.599 264.5 274.267 265.988 288.935 261.033 329.914 264.5 347.5 243.627 348.662 233.956 343.245 212.9 347.5 191.844 351.755 183.086 343.194 166.46 347.5 149.834 351.806 131.459 347.152 117.44 347.5 103.421 347.848 80.1463 342.3 63.2601 347.5 46.3738 352.7 33.7247 346.632 6.50005 347.5 2.86017 334.784 11.6064 320.186 6.50005 294.547 1.39366 268.907 12.1492 266.288 6.50005 244.973 0.85095 223.659 7.32834 212.201 6.50005 188.64 5.67176 165.079 7.99018 153.974 6.50005 132.307 5.00993 110.64 8.27806 100.938 6.50005 82.7333 4.72204 64.5286 7.0436 35.3679 6.50005 9.50005Z" fill="#F2F2F2" fill-rule="evenodd"/><path d="M6.50005 9.50005C24.6899 6.18624 43.8808 10.851 63.2601 9.50005 82.6394 8.14915 90.5131 14.0354 112.28 9.50005 134.047 4.96474 140.804 12.7681 158.72 9.50005 176.636 6.232 192.329 12.5096 205.16 9.50005 217.991 6.49047 244.735 14.1469 264.5 9.50005 265.797 25.282 263.046 42.2271 264.5 59.0734 265.954 75.9198 260.957 94.9745 264.5 112.027 268.044 129.079 262.08 145.34 264.5 158.22 266.92 171.1 263.006 200.34 264.5 214.553 265.994 228.767 258.858 246.544 264.5 264.127 270.143 281.709 262.526 320.048 264.5 347.5 239.697 353.08 237.501 346.479 212.9 347.5 188.299 348.521 179.73 343.531 158.72 347.5 137.711 351.469 125.831 345.331 112.28 347.5 98.7291 349.669 76.2521 347.286 60.68 347.5 45.1079 347.714 17.6009 342.842 6.50005 347.5 2.33226 334.915 11.9077 323.581 6.50005 301.307 1.09245 279.033 7.21153 261.269 6.50005 248.353 5.78858 235.438 7.24239 206.416 6.50005 185.26 5.75772 164.105 11.7763 153.7 6.50005 135.687 1.22385 117.673 11.386 101.38 6.50005 72.5934 1.61406 43.8067 8.97422 38.3491 6.50005 9.50005Z" stroke="#000000" stroke-width="1.33333" stroke-miterlimit="8" stroke-dasharray="1.33333 1.33333" fill="none" fill-rule="evenodd"/><text fill="#70AD47" font-family="Consolas,Consolas_MSFontService,sans-serif" font-weight="400" font-size="10.6667" transform="translate(19.2886 46)">! Simple procedure</text><text fill="#C55A11" font-family="Consolas,Consolas_MSFontService,sans-serif" font-weight="400" font-size="10.6667" transform="translate(19.2886 59)">module type_module</text><text font-family="Consolas,Consolas_MSFontService,sans-serif" font-weight="400" font-size="10.6667" transform="translate(36.7886 72)">integer :: Nx, Ny</text><text font-family="Consolas,Consolas_MSFontService,sans-serif" font-weight="400" font-size="10.6667" transform="translate(36.7886 84)">real :: dx, dy</text><text font-family="Consolas,Consolas_MSFontService,sans-serif" font-weight="400" font-size="10.6667" transform="translate(19.2886 97)">contains</text><text font-family="Consolas,Consolas_MSFontService,sans-serif" font-weight="400" font-size="10.6667" transform="translate(25.1219 110)">subroutine</text><text fill="#7030A0" font-family="Consolas,Consolas_MSFontService,sans-serif" font-weight="400" font-size="10.6667" transform="translate(89.2886 110)">GenerateGrid (nx,ny,dx,dy)</text><text fill="#7F7F7F" font-family="Consolas,Consolas_MSFontService,sans-serif" font-weight="400" font-size="10.6667" transform="translate(42.6219 123)">integer,intent(inout) :: nx,ny</text><text fill="#7F7F7F" font-family="Consolas,Consolas_MSFontService,sans-serif" font-weight="400" font-size="10.6667" transform="translate(42.6219 136)">real, intent(inout) :: dx,dy</text><text fill="#7F7F7F" font-family="Consolas,Consolas_MSFontService,sans-serif" font-weight="400" font-size="10.6667" transform="translate(67.2886 148)">nx = 50</text><text fill="#7F7F7F" font-family="Consolas,Consolas_MSFontService,sans-serif" font-weight="400" font-size="10.6667" transform="translate(67.2886 161)">ny = 50</text><text fill="#7F7F7F" font-family="Consolas,Consolas_MSFontService,sans-serif" font-weight="400" font-size="10.6667" transform="translate(67.2886 174)">dx = 1.0</text><text fill="#7F7F7F" font-family="Consolas,Consolas_MSFontService,sans-serif" font-weight="400" font-size="10.6667" transform="translate(67.2886 187)">dy = 1.0</text><text fill="#7F7F7F" font-family="Consolas,Consolas_MSFontService,sans-serif" font-weight="400" font-size="10.6667" transform="translate(42.6219 200)">print*, nx, ny, dx, dy</text><text font-family="Consolas,Consolas_MSFontService,sans-serif" font-weight="400" font-size="10.6667" transform="translate(25.1219 212)">end subroutine</text><text fill="#C55A11" font-family="Consolas,Consolas_MSFontService,sans-serif" font-weight="400" font-size="10.6667" transform="translate(19.2886 225)">end module type_module</text><text font-family="Consolas,Consolas_MSFontService,sans-serif" font-weight="700" font-size="10.6667" transform="translate(19.2886 251)">program data_type</text><text fill="#0D0D0D" font-family="Consolas,Consolas_MSFontService,sans-serif" font-weight="400" font-size="10.6667" transform="translate(36.7886 264)">use type_module</text><text fill="#0D0D0D" font-family="Consolas,Consolas_MSFontService,sans-serif" font-weight="400" font-size="10.6667" transform="translate(36.7886 276)">implicit none</text><text font-family="Consolas,Consolas_MSFontService,sans-serif" font-weight="400" font-size="10.6667" transform="translate(36.7886 302)">call</text><text fill="#7030A0" font-family="Consolas,Consolas_MSFontService,sans-serif" font-weight="400" font-size="10.6667" transform="translate(65.9553 302)">generateGrid (nx,ny,dx,dy)</text><text font-family="Consolas,Consolas_MSFontService,sans-serif" font-weight="700" font-size="10.6667" transform="translate(19.2886 328)">end program data_type</text><path d="M15.5001 60.5001 15.5002 223.095" stroke="#C55A11" stroke-miterlimit="8" stroke-dasharray="8 3" fill="none" fill-rule="evenodd"/><path d="M289.5 9.50005C299.01 4.70467 324.601 13.9358 334.21 9.50005 343.819 5.06431 379.26 14.5432 392.07 9.50005 404.88 4.4569 427.918 11.1537 442.04 9.50005 456.162 7.8464 477.363 12.5011 486.75 9.50005 496.138 6.49903 529.636 10.8473 552.5 9.50005 556.809 21.6485 551.479 37.6265 552.5 65.6667 553.521 93.7069 549.758 89.2636 552.5 111.723 555.243 134.183 549.336 146.055 552.5 171.26 555.664 196.465 550.687 208.077 552.5 227.427 554.313 246.777 549.066 263.938 552.5 273.483 555.934 283.029 545.705 312.37 552.5 346.5 526.466 351.316 524.317 344.999 499.9 346.5 475.483 348.001 476.129 345.46 452.56 346.5 428.991 347.54 413.243 343.958 402.59 346.5 391.937 349.042 361.6 342.883 347.36 346.5 333.12 350.117 311.774 344.729 289.5 346.5 284.573 324.559 292.666 309.329 289.5 293.703 286.334 278.078 293.15 267.184 289.5 244.277 285.85 221.37 294.454 215.387 289.5 188.11 284.546 160.833 295.651 156.523 289.5 131.943 283.35 107.364 293.658 95.5913 289.5 82.5167 285.342 69.4422 294.559 35.3377 289.5 9.50005Z" fill="#F2F2F2" fill-rule="evenodd"/><path d="M289.5 9.50005C302.66 7.10991 335.619 10.3126 347.36 9.50005 359.101 8.68754 376.76 13.6699 397.33 9.50005 417.9 5.33022 430.321 15.1556 444.67 9.50005 459.019 3.84455 470.785 12.1583 492.01 9.50005 513.235 6.8418 529.361 14.8502 552.5 9.50005 556.414 30.4726 546.94 39.3594 552.5 58.9267 558.06 78.494 551.18 94.1759 552.5 111.723 553.821 129.271 548.319 144.507 552.5 157.78 556.681 171.054 549.076 187.387 552.5 213.947 555.924 240.507 550.142 238.929 552.5 263.373 554.858 287.817 542.92 311.325 552.5 346.5 526.548 352.436 511.008 346.322 499.9 346.5 488.792 346.678 462.139 345.345 444.67 346.5 427.201 347.655 417.644 343.009 397.33 346.5 377.016 349.991 370.425 344.558 344.73 346.5 319.035 348.442 304.467 346.196 289.5 346.5 288.332 325.731 290.751 322.659 289.5 300.443 288.249 278.227 290.782 260.347 289.5 247.647 288.218 234.947 290.293 208.133 289.5 184.74 288.707 161.347 293.862 159.832 289.5 135.313 285.138 110.795 296.89 87.794 289.5 72.4067 282.11 57.0194 293.615 24.4855 289.5 9.50005Z" stroke="#000000" stroke-width="1.33333" stroke-miterlimit="8" stroke-dasharray="1.33333 1.33333" fill="none" fill-rule="evenodd"/><text fill="#70AD47" font-family="Consolas,Consolas_MSFontService,sans-serif" font-weight="400" font-size="10.6667" transform="translate(298.506 27)">! Type bound procedure</text><text fill="#C55A11" font-family="Consolas,Consolas_MSFontService,sans-serif" font-weight="400" font-size="10.6667" transform="translate(298.506 40)">module type_module</text><text fill="#0070C0" font-family="Consolas,Consolas_MSFontService,sans-serif" font-weight="400" font-size="10.6667" transform="translate(310.173 53)">Type gridType</text><text font-family="Consolas,Consolas_MSFontService,sans-serif" font-weight="400" font-size="10.6667" transform="translate(327.673 65)">integer :: Nx, Ny</text><text font-family="Consolas,Consolas_MSFontService,sans-serif" font-weight="400" font-size="10.6667" transform="translate(327.673 78)">real :: dx, dy</text><text font-family="Consolas,Consolas_MSFontService,sans-serif" font-weight="400" font-size="10.6667" transform="translate(310.173 91)">contains</text><text fill="#44546A" font-family="Consolas,Consolas_MSFontService,sans-serif" font-weight="400" font-size="10.6667" transform="translate(327.673 104)">procedure :: GenerateGrid</text><text fill="#0070C0" font-family="Consolas,Consolas_MSFontService,sans-serif" font-weight="400" font-size="10.6667" transform="translate(310.173 117)">end Type gridType</text><text font-family="Consolas,Consolas_MSFontService,sans-serif" font-weight="400" font-size="10.6667" transform="translate(304.339 129)">contains</text><text font-family="Consolas,Consolas_MSFontService,sans-serif" font-weight="400" font-size="10.6667" transform="translate(316.006 142)">subroutine</text><text fill="#7030A0" font-family="Consolas,Consolas_MSFontService,sans-serif" font-weight="400" font-size="10.6667" transform="translate(380.173 142)">GenerateGrid (this)</text><text fill="#7F7F7F" font-family="Consolas,Consolas_MSFontService,sans-serif" font-weight="400" font-size="10.6667" transform="translate(321.839 155)">class(gridType), intent(inout) :: this</text><text fill="#7F7F7F" font-family="Consolas,Consolas_MSFontService,sans-serif" font-weight="400" font-size="10.6667" transform="translate(321.839 168)">this%nx = 50</text><text fill="#7F7F7F" font-family="Consolas,Consolas_MSFontService,sans-serif" font-weight="400" font-size="10.6667" transform="translate(321.839 181)">this%ny = 50</text><text fill="#7F7F7F" font-family="Consolas,Consolas_MSFontService,sans-serif" font-weight="400" font-size="10.6667" transform="translate(321.839 193)">this%dx = 1.0</text><text fill="#7F7F7F" font-family="Consolas,Consolas_MSFontService,sans-serif" font-weight="400" font-size="10.6667" transform="translate(321.839 206)">this%dy = 1.0</text><text fill="#7F7F7F" font-family="Consolas,Consolas_MSFontService,sans-serif" font-weight="400" font-size="10.6667" transform="translate(310.173 219)">print*,this%nx, this%ny, this%dx, this%dy</text><text font-family="Consolas,Consolas_MSFontService,sans-serif" font-weight="400" font-size="10.6667" transform="translate(310.173 232)">end subroutine</text><text fill="#C55A11" font-family="Consolas,Consolas_MSFontService,sans-serif" font-weight="400" font-size="10.6667" transform="translate(298.506 245)">end module type_module</text><text font-family="Consolas,Consolas_MSFontService,sans-serif" font-weight="700" font-size="10.6667" transform="translate(298.506 270)">program data_type</text><text font-family="Consolas,Consolas_MSFontService,sans-serif" font-weight="400" font-size="10.6667" transform="translate(316.006 283)">use type_module</text><text font-family="Consolas,Consolas_MSFontService,sans-serif" font-weight="400" font-size="10.6667" transform="translate(316.006 296)">implicit none</text><text fill="#C00000" font-family="Consolas,Consolas_MSFontService,sans-serif" font-weight="400" font-size="10.6667" transform="translate(316.006 309)">type(gridType) :: grid</text><text font-family="Consolas,Consolas_MSFontService,sans-serif" font-weight="400" font-size="10.6667" transform="translate(316.006 321)">call</text><text fill="#7030A0" font-family="Consolas,Consolas_MSFontService,sans-serif" font-weight="400" font-size="10.6667" transform="translate(345.173 321)">grid%generateGrid ()</text><text font-family="Consolas,Consolas_MSFontService,sans-serif" font-weight="700" font-size="10.6667" transform="translate(298.506 334)">end program data_type</text><path d="M296.5 45.5001 296.5 240.882" stroke="#C55A11" stroke-miterlimit="8" stroke-dasharray="8 3" fill="none" fill-rule="evenodd"/></g></svg>