<svg width="756" height="378" xmlns="http://www.w3.org/2000/svg" xmlns:xlink="http://www.w3.org/1999/xlink" overflow="hidden"><g><rect x="0" y="0" width="756" height="377.917" fill="#FFFFFF"/><path d="M62.5 79.4825C76.0422 78.1823 87.8776 83.2604 106.36 79.4825 124.842 75.7047 136.201 84.0833 163.12 79.4825 190.039 74.8817 190.964 79.7417 212.14 79.4825 233.315 79.2234 247.065 84.0424 256 79.4825 264.935 74.9227 291.605 83.0204 320.5 79.4825 326.636 108.896 317.902 126.539 320.5 141.969 323.098 157.399 316.557 176.031 320.5 196.957 324.443 217.882 317.17 240.72 320.5 261.942 323.83 283.164 319.017 314.913 320.5 329.427 302.179 332.52 296.747 325.526 276.64 329.427 256.533 333.329 250.714 328.919 232.78 329.427 214.846 329.935 200.866 322.918 176.02 329.427 151.174 335.937 147.156 326.079 129.58 329.427 112.004 332.776 86.1517 329.199 62.5 329.427 60.4635 309.234 68.293 284.558 62.5 264.442 56.707 244.325 62.6865 228.736 62.5 206.954 62.3135 185.173 65.4388 168.416 62.5 149.467 59.5612 130.519 70.3338 112.79 62.5 79.4825Z" fill="#F2F2F2" fill-rule="evenodd"/><path d="M62.5 79.4825C75.626 77.3218 94.812 80.5104 114.1 79.4825 133.388 78.4547 145.107 82.6255 165.7 79.4825 186.293 76.3395 198.616 82.1766 214.72 79.4825 230.824 76.7884 244.629 85.0509 266.32 79.4825 288.011 73.9141 298.729 83.7203 320.5 79.4825 323.734 103.189 318.707 118.936 320.5 139.469 322.293 160.003 316.547 177.938 320.5 199.456 324.453 220.974 319.894 240.621 320.5 256.943 321.106 273.265 318.289 300.085 320.5 329.427 309.096 333.851 294.582 327.021 274.06 329.427 253.538 331.834 245.252 328.675 230.2 329.427 215.148 330.18 187.388 326.642 176.02 329.427 164.652 332.213 151.901 325.868 132.16 329.427 112.419 332.987 85.041 329.369 62.5 329.427 58.4487 312.273 68.0916 289.244 62.5 274.44 56.9084 259.635 64.6873 225.935 62.5 206.954 60.3126 187.973 63.7295 170.637 62.5 149.467 61.2704 128.297 63.4159 99.6243 62.5 79.4825Z" stroke="#000000" stroke-width="1.33363" stroke-miterlimit="8" stroke-dasharray="1.33363 1.33363" fill="none" fill-rule="evenodd"/><text fill="#FF0000" font-family="Calibri,Calibri_MSFontService,sans-serif" font-weight="700" font-size="32.0133" transform="matrix(1 0 0 0.99978 71.4359 65)">Intrinsic data type</text><text fill="#FF0000" font-family="Calibri,Calibri_MSFontService,sans-serif" font-weight="700" font-size="32.0133" transform="matrix(1 0 0 0.99978 383.409 65)">User</text><text fill="#FF0000" font-family="Calibri,Calibri_MSFontService,sans-serif" font-weight="700" font-size="32.0133" transform="matrix(1 0 0 0.99978 444.589 65)">-</text><text fill="#FF0000" font-family="Calibri,Calibri_MSFontService,sans-serif" font-weight="700" font-size="32.0133" transform="matrix(1 0 0 0.99978 454.425 65)">defined data type</text><text font-family="Consolas,Consolas_MSFontService,sans-serif" font-weight="400" font-size="21.3333" transform="matrix(1 0 0 0.99978 72.1698 152)">Program data_type</text><text font-family="Consolas,Consolas_MSFontService,sans-serif" font-weight="400" font-size="21.3333" transform="matrix(1 0 0 0.99978 72.1698 178)">implicit none</text><text fill="#0070C0" font-family="Consolas,Consolas_MSFontService,sans-serif" font-weight="400" font-size="21.3333" transform="matrix(1 0 0 0.99978 108.511 203)">integer ::</text><text fill="#0070C0" font-family="Consolas,Consolas_MSFontService,sans-serif" font-weight="400" font-size="21.3333" transform="matrix(1 0 0 0.99978 236.873 203)">nx,</text><text fill="#0070C0" font-family="Consolas,Consolas_MSFontService,sans-serif" font-weight="400" font-size="21.3333" transform="matrix(1 0 0 0.99978 283.55 203)">ny</text><text fill="#0070C0" font-family="Consolas,Consolas_MSFontService,sans-serif" font-weight="400" font-size="21.3333" transform="matrix(1 0 0 0.99978 108.511 229)">real</text><text fill="#0070C0" font-family="Consolas,Consolas_MSFontService,sans-serif" font-weight="400" font-size="21.3333" transform="matrix(1 0 0 0.99978 201.865 229)">:: dx,</text><text fill="#0070C0" font-family="Consolas,Consolas_MSFontService,sans-serif" font-weight="400" font-size="21.3333" transform="matrix(1 0 0 0.99978 283.55 229)">dy</text><text font-family="Consolas,Consolas_MSFontService,sans-serif" font-weight="400" font-size="21.3333" transform="matrix(1 0 0 0.99978 72.1698 255)">end program</text><path d="M413.5 79.4825C432.634 74.2384 446.809 80.2223 462.52 79.4825 478.231 78.7427 489.929 82.2645 516.7 79.4825 543.471 76.7006 547.706 80.1636 565.72 79.4825 583.734 78.8015 599.443 83.8945 609.58 79.4825 619.717 75.0706 646.157 80.4832 671.5 79.4825 673.923 99.6556 667.349 112.357 671.5 144.468 675.651 176.579 668.129 173.473 671.5 201.956 674.871 230.438 667.32 251.535 671.5 269.441 675.679 287.347 669.641 311.557 671.5 329.427 657.531 334.114 636.642 324.988 614.74 329.427 592.838 333.866 579.002 325.767 560.56 329.427 542.118 333.087 534.527 326.867 511.54 329.427 488.553 331.988 481.981 328.703 467.68 329.427 453.379 330.152 428.398 323.059 413.5 329.427 413.207 298.73 413.567 282.953 413.5 264.442 413.433 245.93 415.021 223.142 413.5 204.455 411.979 185.768 416.052 167.197 413.5 136.97 410.948 106.743 415.055 107.276 413.5 79.4825Z" fill="#F2F2F2" fill-rule="evenodd"/><path d="M413.5 79.4825C433.019 78.1137 447.237 84.6576 462.52 79.4825 477.803 74.3074 488.286 84.7166 508.96 79.4825 529.634 74.2484 544.391 82.3395 563.14 79.4825 581.889 76.6256 600.552 82.4217 612.16 79.4825 623.768 76.5433 652.945 86.2624 671.5 79.4825 675.798 92.5721 665.152 124.591 671.5 139.469 677.848 154.347 666.531 187.69 671.5 206.954 676.469 226.219 667.896 246.263 671.5 266.941 675.104 287.62 667.735 316.059 671.5 329.427 658.284 330.096 646.651 328.349 625.06 329.427 603.469 330.506 591.063 328.941 581.2 329.427 571.336 329.914 553.027 328.767 529.6 329.427 506.173 330.088 498.232 327.89 472.84 329.427 447.448 330.965 431.713 325.706 413.5 329.427 411.908 311.053 418.127 287.102 413.5 264.442 408.873 241.781 419.905 217.492 413.5 204.455 407.095 191.418 416.021 162.247 413.5 146.968 410.979 131.688 414.46 103.969 413.5 79.4825Z" stroke="#000000" stroke-width="1.33363" stroke-miterlimit="8" stroke-dasharray="1.33363 1.33363" fill="none" fill-rule="evenodd"/><text font-family="Consolas,Consolas_MSFontService,sans-serif" font-weight="400" font-size="21.3333" transform="matrix(1 0 0 0.99978 416.889 134)">Program data_type</text><text font-family="Consolas,Consolas_MSFontService,sans-serif" font-weight="400" font-size="21.3333" transform="matrix(1 0 0 0.99978 435.393 160)">implicit</text><text font-family="Consolas,Consolas_MSFontService,sans-serif" font-weight="400" font-size="21.3333" transform="matrix(1 0 0 0.99978 540.416 160)">none</text><text fill="#0070C0" font-family="Consolas,Consolas_MSFontService,sans-serif" font-weight="400" font-size="21.3333" transform="matrix(1 0 0 0.99978 447.062 185)">Type</text><text fill="#0070C0" font-family="Consolas,Consolas_MSFontService,sans-serif" font-weight="400" font-size="21.3333" transform="matrix(1 0 0 0.99978 517.078 185)">gridType</text><text font-family="Consolas,Consolas_MSFontService,sans-serif" font-weight="400" font-size="21.3333" transform="matrix(1 0 0 0.99978 471.735 211)">integer:: nx,</text><text font-family="Consolas,Consolas_MSFontService,sans-serif" font-weight="400" font-size="21.3333" transform="matrix(1 0 0 0.99978 635.104 211)">ny</text><text font-family="Consolas,Consolas_MSFontService,sans-serif" font-weight="400" font-size="21.3333" transform="matrix(1 0 0 0.99978 471.735 237)">real</text><text font-family="Consolas,Consolas_MSFontService,sans-serif" font-weight="400" font-size="21.3333" transform="matrix(1 0 0 0.99978 553.419 237)">:: dx,</text><text font-family="Consolas,Consolas_MSFontService,sans-serif" font-weight="400" font-size="21.3333" transform="matrix(1 0 0 0.99978 635.104 237)">dy</text><text fill="#0070C0" font-family="Consolas,Consolas_MSFontService,sans-serif" font-weight="400" font-size="21.3333" transform="matrix(1 0 0 0.99978 447.062 262)">end</text><text fill="#0070C0" font-family="Consolas,Consolas_MSFontService,sans-serif" font-weight="400" font-size="21.3333" transform="matrix(1 0 0 0.99978 493.739 262)">Type gridType</text><text font-family="Consolas,Consolas_MSFontService,sans-serif" font-weight="400" font-size="21.3333" transform="matrix(1 0 0 0.99978 423.724 288)">end program</text><path d="M444 180.96 444 266.487" stroke="#4472C4" stroke-width="2.00044" stroke-miterlimit="8" stroke-dasharray="16.0035 6.00132" fill="none" fill-rule="evenodd"/></g></svg>